<?xml version="1.0" encoding="UTF-8"?>
<!DOCTYPE svg PUBLIC "-//W3C//DTD SVG 1.1//EN" "http://www.w3.org/Graphics/SVG/1.1/DTD/svg11.dtd">
<svg xmlns="http://www.w3.org/2000/svg" version="1.1" width="420px" height="420px" style="shape-rendering:geometricPrecision; text-rendering:geometricPrecision; image-rendering:optimizeQuality; fill-rule:evenodd; clip-rule:evenodd" xmlns:xlink="http://www.w3.org/1999/xlink">
<g><path style="opacity:0.386" fill="#111111" d="M 194.5,12.5 C 212.649,10.5957 230.649,11.5957 248.5,15.5C 230.587,13.0775 212.587,12.0775 194.5,12.5 Z"/></g>
<g><path style="opacity:1" fill="#363636" d="M 194.5,12.5 C 187.776,14.5083 180.776,15.5083 173.5,15.5C 180.251,13.6784 187.251,12.6784 194.5,12.5 Z"/></g>
<g><path style="opacity:1" fill="#fafafa" d="M 194.5,12.5 C 212.587,12.0775 230.587,13.0775 248.5,15.5C 253.878,17.5932 259.545,18.9265 265.5,19.5C 270.205,21.735 275.205,23.4017 280.5,24.5C 281.78,25.9313 283.447,26.5979 285.5,26.5C 286.78,27.9313 288.447,28.5979 290.5,28.5C 358.54,61.4064 398.04,115.406 409,190.5C 414.059,266.419 386.559,327.252 326.5,373C 286.106,400.434 241.44,412.601 192.5,409.5C 187.75,407.969 182.75,407.302 177.5,407.5C 173.665,407.583 169.998,406.917 166.5,405.5C 164.562,403.837 162.228,403.171 159.5,403.5C 156.619,401.32 153.286,400.32 149.5,400.5C 147.214,400.405 145.214,399.738 143.5,398.5C 141.208,396.733 138.542,395.733 135.5,395.5C 134.508,395.672 133.842,395.338 133.5,394.5C 131.574,392.707 129.241,391.707 126.5,391.5C 123.515,390.674 120.849,389.341 118.5,387.5C 116.664,385.412 114.331,384.079 111.5,383.5C 110.508,383.672 109.842,383.338 109.5,382.5C 109.027,381.094 108.027,380.427 106.5,380.5C 106.027,379.094 105.027,378.427 103.5,378.5C 101.853,376.674 99.8525,375.34 97.5,374.5C 97.0269,373.094 96.0269,372.427 94.5,372.5C 93.7377,370.738 92.4044,369.738 90.5,369.5C 89.4154,367.413 87.7488,366.08 85.5,365.5C 83.7607,362.757 81.4274,360.757 78.5,359.5C 73.8333,354.167 68.8333,349.167 63.5,344.5C 62.5,344.167 61.8333,343.5 61.5,342.5C 60.5806,339.911 58.914,337.911 56.5,336.5C 55.9202,334.251 54.5869,332.585 52.5,331.5C 52.2624,329.596 51.2624,328.262 49.5,327.5C 49.573,325.973 48.9063,324.973 47.5,324.5C 47.573,322.973 46.9063,321.973 45.5,321.5C 45.573,319.973 44.9063,318.973 43.5,318.5C 43.573,316.973 42.9063,315.973 41.5,315.5C 41.2503,313.326 40.2503,311.659 38.5,310.5C 37.6618,310.158 37.3284,309.492 37.5,308.5C 35.0078,302.182 32.0078,296.182 28.5,290.5C 25.7353,281.993 22.7353,273.659 19.5,265.5C 14.2585,242.138 11.9252,218.471 12.5,194.5C 14.5083,187.776 15.5083,180.776 15.5,173.5C 15.7402,168.88 16.7402,164.547 18.5,160.5C 21.0129,156.622 22.3462,152.289 22.5,147.5C 24.8846,144.347 26.2179,140.68 26.5,136.5C 28.8176,134.815 29.8176,132.481 29.5,129.5C 29.3284,128.508 29.6618,127.842 30.5,127.5C 32.6744,124.485 34.3411,121.151 35.5,117.5C 35.6596,115.847 36.3263,114.514 37.5,113.5C 39.9501,111.371 41.6167,108.704 42.5,105.5C 45.2411,103.025 47.2411,100.025 48.5,96.5C 50.984,94.1997 52.984,91.5331 54.5,88.5C 56.5869,87.4154 57.9202,85.7488 58.5,83.5C 62.5658,80.4372 65.8991,76.7706 68.5,72.5C 68.8333,71.5 69.5,70.8333 70.5,70.5C 75.4397,67.2297 79.7731,63.2297 83.5,58.5C 85.7488,57.9202 87.4154,56.5869 88.5,54.5C 90.4044,54.2624 91.7377,53.2624 92.5,51.5C 94.4044,51.2624 95.7377,50.2624 96.5,48.5C 98.0269,48.573 99.0269,47.9063 99.5,46.5C 101.853,45.6597 103.853,44.3264 105.5,42.5C 107.027,42.573 108.027,41.9063 108.5,40.5C 108.842,39.6618 109.508,39.3284 110.5,39.5C 112.674,39.2503 114.341,38.2503 115.5,36.5C 119.849,33.6589 124.516,31.3255 129.5,29.5C 132.241,29.2927 134.574,28.2927 136.5,26.5C 139.636,26.3969 142.302,25.3969 144.5,23.5C 146.214,22.2616 148.214,21.595 150.5,21.5C 154.286,21.68 157.619,20.68 160.5,18.5C 164.547,16.7402 168.88,15.7402 173.5,15.5C 180.776,15.5083 187.776,14.5083 194.5,12.5 Z M 246.5,25.5 C 254.473,27.1633 262.473,28.83 270.5,30.5C 275.216,32.7387 280.216,34.4054 285.5,35.5C 286.78,36.9313 288.447,37.5979 290.5,37.5C 292.426,39.2927 294.759,40.2927 297.5,40.5C 301.182,43.0078 305.182,45.0078 309.5,46.5C 310.659,48.2503 312.326,49.2503 314.5,49.5C 314.842,50.3382 315.508,50.6716 316.5,50.5C 316.973,51.9063 317.973,52.573 319.5,52.5C 319.973,53.9063 320.973,54.573 322.5,54.5C 322.973,55.9063 323.973,56.573 325.5,56.5C 325.973,57.9063 326.973,58.573 328.5,58.5C 329.262,60.2624 330.596,61.2624 332.5,61.5C 333.262,63.2624 334.596,64.2624 336.5,64.5C 338.239,67.2427 340.573,69.2427 343.5,70.5C 348.167,75.8333 353.167,80.8333 358.5,85.5C 359.443,88.1092 361.11,90.1092 363.5,91.5C 364.124,93.754 365.457,95.4206 367.5,96.5C 367.738,98.4044 368.738,99.7377 370.5,100.5C 371.759,104.025 373.759,107.025 376.5,109.5C 376.427,111.027 377.094,112.027 378.5,112.5C 378.751,114.17 379.418,115.67 380.5,117C 340.448,116.842 300.615,117.675 261,119.5C 255.41,118.191 249.577,117.525 243.5,117.5C 237.458,117.504 231.792,118.171 226.5,119.5C 205.715,159.404 185.715,199.738 166.5,240.5C 164.896,241.287 164.229,242.62 164.5,244.5C 161.992,248.182 159.992,252.182 158.5,256.5C 157.624,256.631 156.957,256.298 156.5,255.5C 133.411,210.322 110.578,164.989 88,119.5C 86.9326,118.809 85.7659,118.309 84.5,118C 75.8142,117.832 67.1475,117.332 58.5,116.5C 95.9723,56.9954 150.139,25.9954 221,23.5C 229.496,24.2854 237.996,24.952 246.5,25.5 Z M 388.5,131.5 C 391.322,139.973 394.322,148.306 397.5,156.5C 403.249,180.198 404.916,204.198 402.5,228.5C 401.539,230.265 401.205,232.265 401.5,234.5C 400.216,238.985 399.216,243.651 398.5,248.5C 397.566,249.568 397.232,250.901 397.5,252.5C 395.899,255.55 394.899,258.884 394.5,262.5C 392.733,264.792 391.733,267.458 391.5,270.5C 389.707,272.426 388.707,274.759 388.5,277.5C 387.326,278.514 386.66,279.847 386.5,281.5C 384.992,283.181 383.992,285.181 383.5,287.5C 382.326,288.514 381.66,289.847 381.5,291.5C 379.75,292.659 378.75,294.326 378.5,296.5C 376.05,298.629 374.383,301.296 373.5,304.5C 371.1,306.296 369.433,308.63 368.5,311.5C 360.229,321.108 351.562,330.441 342.5,339.5C 339.911,340.419 337.911,342.086 336.5,344.5C 334.251,345.08 332.585,346.413 331.5,348.5C 329.973,348.427 328.973,349.094 328.5,350.5C 326.596,350.738 325.262,351.738 324.5,353.5C 322.973,353.427 321.973,354.094 321.5,355.5C 319.326,355.75 317.659,356.75 316.5,358.5C 314.326,358.75 312.659,359.75 311.5,361.5C 310.508,361.328 309.842,361.662 309.5,362.5C 304.516,364.326 299.849,366.659 295.5,369.5C 294.508,369.328 293.842,369.662 293.5,370.5C 291.447,370.402 289.78,371.069 288.5,372.5C 285.458,372.733 282.792,373.733 280.5,375.5C 279.209,375.263 278.209,375.596 277.5,376.5C 273.838,376.723 270.505,377.723 267.5,379.5C 264.219,379.42 261.219,380.087 258.5,381.5C 254.709,381.659 251.042,382.325 247.5,383.5C 241.312,383.757 235.312,384.423 229.5,385.5C 211.697,385.851 194.031,384.518 176.5,381.5C 167.594,378.868 158.594,376.202 149.5,373.5C 117.348,360.163 90.8481,339.497 70,311.5C 69.1683,260.665 69.335,209.998 70.5,159.5C 72.1263,165.419 74.7929,170.753 78.5,175.5C 80.9922,181.818 83.9922,187.818 87.5,193.5C 92.4046,204.978 98.0713,215.978 104.5,226.5C 107.325,233.484 110.659,240.151 114.5,246.5C 119.405,257.978 125.071,268.978 131.5,279.5C 133.659,285.151 136.326,290.484 139.5,295.5C 140.967,300.16 142.967,303.827 145.5,306.5C 148.85,306.665 152.183,306.498 155.5,306C 156.738,305.31 156.738,304.81 155.5,304.5C 178.717,257.065 202.217,209.732 226,162.5C 226.167,210.002 226.667,257.335 227.5,304.5C 250.661,305.498 273.994,305.831 297.5,305.5C 297.5,273.833 297.5,242.167 297.5,210.5C 319.167,210.5 340.833,210.5 362.5,210.5C 362.5,206.167 362.5,201.833 362.5,197.5C 361.5,197.5 360.5,197.5 359.5,197.5C 339.007,196.503 318.34,196.169 297.5,196.5C 297.5,174.833 297.5,153.167 297.5,131.5C 327.833,131.5 358.167,131.5 388.5,131.5 Z M 49.5,132.5 C 50.6649,180.665 50.8316,228.998 50,277.5C 29.5368,229.241 29.3701,180.907 49.5,132.5 Z"/></g>
<g><path style="opacity:0.374" fill="#1b1b1b" d="M 248.5,15.5 C 254.455,16.0735 260.122,17.4068 265.5,19.5C 259.545,18.9265 253.878,17.5932 248.5,15.5 Z"/></g>
<g><path style="opacity:1" fill="#444444" d="M 160.5,18.5 C 157.619,20.68 154.286,21.68 150.5,21.5C 153.505,19.7234 156.838,18.7234 160.5,18.5 Z"/></g>
<g><path style="opacity:0.362" fill="#1b1b1b" d="M 265.5,19.5 C 270.921,20.1959 275.921,21.8626 280.5,24.5C 275.205,23.4017 270.205,21.735 265.5,19.5 Z"/></g>
<g><path style="opacity:1" fill="#464646" d="M 144.5,23.5 C 142.302,25.3969 139.636,26.3969 136.5,26.5C 138.792,24.7329 141.458,23.7329 144.5,23.5 Z"/></g>
<g><path style="opacity:0.322" fill="#191919" d="M 280.5,24.5 C 282.553,24.4021 284.22,25.0687 285.5,26.5C 283.447,26.5979 281.78,25.9313 280.5,24.5 Z"/></g>
<g><path style="opacity:0.188" fill="#111111" d="M 136.5,26.5 C 134.574,28.2927 132.241,29.2927 129.5,29.5C 131.426,27.7073 133.759,26.7073 136.5,26.5 Z"/></g>
<g><path style="opacity:0.312" fill="#181818" d="M 285.5,26.5 C 287.553,26.4021 289.22,27.0687 290.5,28.5C 288.447,28.5979 286.78,27.9313 285.5,26.5 Z"/></g>
<g><path style="opacity:0.408" fill="#282828" d="M 270.5,30.5 C 276.044,30.7923 281.044,32.4589 285.5,35.5C 280.216,34.4054 275.216,32.7387 270.5,30.5 Z"/></g>
<g><path style="opacity:0.206" fill="#0a0a0a" d="M 285.5,35.5 C 287.553,35.4021 289.22,36.0687 290.5,37.5C 288.447,37.5979 286.78,36.9313 285.5,35.5 Z"/></g>
<g><path style="opacity:0.369" fill="#151515" d="M 115.5,36.5 C 114.341,38.2503 112.674,39.2503 110.5,39.5C 111.659,37.7497 113.326,36.7497 115.5,36.5 Z"/></g>
<g><path style="opacity:0.288" fill="#0f0f0f" d="M 290.5,37.5 C 293.241,37.7073 295.574,38.7073 297.5,40.5C 294.759,40.2927 292.426,39.2927 290.5,37.5 Z"/></g>
<g><path style="opacity:0.808" fill="#0b0b0b" d="M 290.5,28.5 C 350.011,54.1817 388.844,98.1817 407,160.5C 425.854,247.89 400.354,319.056 330.5,374C 288.876,403.072 242.876,414.906 192.5,409.5C 241.44,412.601 286.106,400.434 326.5,373C 386.559,327.252 414.059,266.419 409,190.5C 398.04,115.406 358.54,61.4064 290.5,28.5 Z"/></g>
<g><path style="opacity:1" fill="#1f1f1f" d="M 108.5,40.5 C 108.027,41.9063 107.027,42.573 105.5,42.5C 105.973,41.0937 106.973,40.427 108.5,40.5 Z"/></g>
<g><path style="opacity:0.294" fill="#191919" d="M 105.5,42.5 C 103.853,44.3264 101.853,45.6597 99.5,46.5C 100.802,44.1782 102.802,42.8449 105.5,42.5 Z"/></g>
<g><path style="opacity:1" fill="#2e2e2e" d="M 99.5,46.5 C 99.0269,47.9063 98.0269,48.573 96.5,48.5C 96.9731,47.0937 97.9731,46.427 99.5,46.5 Z"/></g>
<g><path style="opacity:0.306" fill="#151515" d="M 309.5,46.5 C 311.674,46.7497 313.341,47.7497 314.5,49.5C 312.326,49.2503 310.659,48.2503 309.5,46.5 Z"/></g>
<g><path style="opacity:1" fill="#2c2c2c" d="M 96.5,48.5 C 95.7377,50.2624 94.4044,51.2624 92.5,51.5C 93.2623,49.7376 94.5956,48.7376 96.5,48.5 Z"/></g>
<g><path style="opacity:0.461" fill="#161616" d="M 316.5,50.5 C 318.027,50.427 319.027,51.0937 319.5,52.5C 317.973,52.573 316.973,51.9063 316.5,50.5 Z"/></g>
<g><path style="opacity:1" fill="#303030" d="M 92.5,51.5 C 91.7377,53.2624 90.4044,54.2624 88.5,54.5C 89.2623,52.7376 90.5956,51.7376 92.5,51.5 Z"/></g>
<g><path style="opacity:0.396" fill="#101010" d="M 319.5,52.5 C 321.027,52.427 322.027,53.0937 322.5,54.5C 320.973,54.573 319.973,53.9063 319.5,52.5 Z"/></g>
<g><path style="opacity:0.4" fill="#0e0e0e" d="M 322.5,54.5 C 324.027,54.427 325.027,55.0937 325.5,56.5C 323.973,56.573 322.973,55.9063 322.5,54.5 Z"/></g>
<g><path style="opacity:1" fill="#3b3b3b" d="M 88.5,54.5 C 87.4154,56.5869 85.7488,57.9202 83.5,58.5C 84.5846,56.4131 86.2512,55.0798 88.5,54.5 Z"/></g>
<g><path style="opacity:0.473" fill="#131313" d="M 325.5,56.5 C 327.027,56.427 328.027,57.0937 328.5,58.5C 326.973,58.573 325.973,57.9063 325.5,56.5 Z"/></g>
<g><path style="opacity:0.973" fill="#1d1d1d" d="M 328.5,58.5 C 330.404,58.7376 331.738,59.7376 332.5,61.5C 330.596,61.2624 329.262,60.2624 328.5,58.5 Z"/></g>
<g><path style="opacity:0.992" fill="#232323" d="M 332.5,61.5 C 334.404,61.7376 335.738,62.7376 336.5,64.5C 334.596,64.2624 333.262,63.2624 332.5,61.5 Z"/></g>
<g><path style="opacity:1" fill="#555555" d="M 83.5,58.5 C 79.7731,63.2297 75.4397,67.2297 70.5,70.5C 74.2269,65.7703 78.5603,61.7703 83.5,58.5 Z"/></g>
<g><path style="opacity:0.949" fill="#232323" d="M 336.5,64.5 C 339.427,65.7573 341.761,67.7573 343.5,70.5C 340.573,69.2427 338.239,67.2427 336.5,64.5 Z"/></g>
<g><path style="opacity:1" fill="#363636" d="M 343.5,70.5 C 349.5,74.5 354.5,79.5 358.5,85.5C 353.167,80.8333 348.167,75.8333 343.5,70.5 Z"/></g>
<g><path style="opacity:1" fill="#484848" d="M 68.5,72.5 C 65.8991,76.7706 62.5658,80.4372 58.5,83.5C 61.1009,79.2294 64.4342,75.5628 68.5,72.5 Z"/></g>
<g><path style="opacity:0.949" fill="#292929" d="M 58.5,83.5 C 57.9202,85.7488 56.5869,87.4154 54.5,88.5C 55.0798,86.2512 56.4131,84.5846 58.5,83.5 Z"/></g>
<g><path style="opacity:0.431" fill="#262626" d="M 358.5,85.5 C 360.86,86.865 362.527,88.865 363.5,91.5C 361.11,90.1092 359.443,88.1092 358.5,85.5 Z"/></g>
<g><path style="opacity:0.863" fill="#242424" d="M 54.5,88.5 C 52.984,91.5331 50.984,94.1997 48.5,96.5C 49.5293,93.1092 51.5293,90.4426 54.5,88.5 Z"/></g>
<g><path style="opacity:0.429" fill="#272727" d="M 363.5,91.5 C 365.531,92.5387 366.864,94.2054 367.5,96.5C 365.457,95.4206 364.124,93.754 363.5,91.5 Z"/></g>
<g><path style="opacity:0.353" fill="#141414" d="M 367.5,96.5 C 369.262,97.2623 370.262,98.5956 370.5,100.5C 368.738,99.7377 367.738,98.4044 367.5,96.5 Z"/></g>
<g><path style="opacity:0.867" fill="#1f1f1f" d="M 48.5,96.5 C 47.2411,100.025 45.2411,103.025 42.5,105.5C 43.7232,101.951 45.7232,98.9505 48.5,96.5 Z"/></g>
<g><path style="opacity:0.325" fill="#191919" d="M 370.5,100.5 C 373.277,102.951 375.277,105.951 376.5,109.5C 373.759,107.025 371.759,104.025 370.5,100.5 Z"/></g>
<g><path style="opacity:0.39" fill="#121212" d="M 376.5,109.5 C 377.906,109.973 378.573,110.973 378.5,112.5C 377.094,112.027 376.427,111.027 376.5,109.5 Z"/></g>
<g><path style="opacity:0.38" fill="#171717" d="M 42.5,105.5 C 41.6167,108.704 39.9501,111.371 37.5,113.5C 38.3833,110.296 40.0499,107.629 42.5,105.5 Z"/></g>
<g><path style="opacity:0.815" fill="#090909" d="M 378.5,112.5 C 380.179,114 381.512,115.833 382.5,118C 342.501,118.5 302.501,118.667 262.5,118.5C 262.5,180.167 262.5,241.833 262.5,303.5C 272.833,303.5 283.167,303.5 293.5,303.5C 293.5,272.167 293.5,240.833 293.5,209.5C 315.5,209.5 337.5,209.5 359.5,209.5C 359.5,205.5 359.5,201.5 359.5,197.5C 360.5,197.5 361.5,197.5 362.5,197.5C 362.5,201.833 362.5,206.167 362.5,210.5C 340.833,210.5 319.167,210.5 297.5,210.5C 297.5,242.167 297.5,273.833 297.5,305.5C 273.994,305.831 250.661,305.498 227.5,304.5C 227.833,304.5 228.167,304.5 228.5,304.5C 238.833,304.5 249.167,304.5 259.5,304.5C 259.832,242.331 259.499,180.331 258.5,118.5C 247.752,118.191 237.085,118.524 226.5,119.5C 231.792,118.171 237.458,117.504 243.5,117.5C 249.577,117.525 255.41,118.191 261,119.5C 300.615,117.675 340.448,116.842 380.5,117C 379.418,115.67 378.751,114.17 378.5,112.5 Z"/></g>
<g><path style="opacity:0.8" fill="#0b0b0b" d="M 246.5,25.5 C 237.996,24.952 229.496,24.2854 221,23.5C 150.139,25.9954 95.9723,56.9954 58.5,116.5C 67.1475,117.332 75.8142,117.832 84.5,118C 85.7659,118.309 86.9326,118.809 88,119.5C 110.578,164.989 133.411,210.322 156.5,255.5C 156.957,256.298 157.624,256.631 158.5,256.5C 158.473,259.39 157.307,260.39 155,259.5C 131.31,212.62 107.476,165.787 83.5,119C 73.4834,118.832 63.4834,118.332 53.5,117.5C 85.0969,64.7855 131.43,33.6189 192.5,24C 209.167,22 225.833,22 242.5,24C 244.058,24.21 245.391,24.71 246.5,25.5 Z"/></g>
<g><path style="opacity:0.233" fill="#121212" d="M 35.5,117.5 C 34.3411,121.151 32.6744,124.485 30.5,127.5C 31.1266,123.58 32.7933,120.247 35.5,117.5 Z"/></g>
<g><path style="opacity:0.735" fill="#0d0d0d" d="M 50.5,122.5 C 51.8333,177.167 51.8333,231.833 50.5,286.5C 23.8791,231.806 23.8791,177.14 50.5,122.5 Z M 49.5,132.5 C 29.3701,180.907 29.5368,229.241 50,277.5C 50.8316,228.998 50.6649,180.665 49.5,132.5 Z"/></g>
<g><path style="opacity:1" fill="#aeaeae" d="M 50.5,122.5 C 50.56,121.957 50.8933,121.624 51.5,121.5C 52.8333,177.167 52.8333,232.833 51.5,288.5C 50.7025,288.043 50.3691,287.376 50.5,286.5C 51.8333,231.833 51.8333,177.167 50.5,122.5 Z"/></g>
<g><path style="opacity:0.707" fill="#070707" d="M 388.5,131.5 C 358.167,131.5 327.833,131.5 297.5,131.5C 297.5,153.167 297.5,174.833 297.5,196.5C 318.34,196.169 339.007,196.503 359.5,197.5C 359.167,197.5 358.833,197.5 358.5,197.5C 336.833,197.5 315.167,197.5 293.5,197.5C 293.5,175.167 293.5,152.833 293.5,130.5C 325.338,130.168 357.004,130.502 388.5,131.5 Z"/></g>
<g><path style="opacity:0.204" fill="#262626" d="M 29.5,129.5 C 29.8176,132.481 28.8176,134.815 26.5,136.5C 26.7073,133.759 27.7073,131.426 29.5,129.5 Z"/></g>
<g><path style="opacity:1" fill="#505050" d="M 26.5,136.5 C 26.2179,140.68 24.8846,144.347 22.5,147.5C 23.0653,143.463 24.3987,139.797 26.5,136.5 Z"/></g>
<g><path style="opacity:0.22" fill="#1e1e1e" d="M 388.5,131.5 C 392.877,139.271 395.877,147.604 397.5,156.5C 394.322,148.306 391.322,139.973 388.5,131.5 Z"/></g>
<g><path style="opacity:0.763" fill="#0f0f0f" d="M 228.5,303.5 C 228.5,303.833 228.5,304.167 228.5,304.5C 228.167,304.5 227.833,304.5 227.5,304.5C 226.667,257.335 226.167,210.002 226,162.5C 202.217,209.732 178.717,257.065 155.5,304.5C 151.671,303.931 148.337,304.598 145.5,306.5C 142.967,303.827 140.967,300.16 139.5,295.5C 141.515,297.676 143.182,300.176 144.5,303C 146.902,303.814 149.235,303.647 151.5,302.5C 176.411,252.345 201.578,202.345 227,152.5C 227.167,203.002 227.667,253.335 228.5,303.5 Z"/></g>
<g><path style="opacity:0.822" fill="#070707" d="M 70.5,159.5 C 69.335,209.998 69.1683,260.665 70,311.5C 90.8481,339.497 117.348,360.163 149.5,373.5C 115.236,361.075 87.4022,340.075 66,310.5C 65.5,258.168 65.3333,205.834 65.5,153.5C 68.5411,154.199 70.2078,156.199 70.5,159.5 Z"/></g>
<g><path style="opacity:1" fill="#474747" d="M 22.5,147.5 C 22.3462,152.289 21.0129,156.622 18.5,160.5C 19.0569,155.835 20.3902,151.502 22.5,147.5 Z"/></g>
<g><path style="opacity:0.251" fill="#141414" d="M 70.5,159.5 C 73.6745,164.516 76.3412,169.849 78.5,175.5C 74.7929,170.753 72.1263,165.419 70.5,159.5 Z"/></g>
<g><path style="opacity:1" fill="#363636" d="M 15.5,173.5 C 15.5083,180.776 14.5083,187.776 12.5,194.5C 12.6784,187.251 13.6784,180.251 15.5,173.5 Z"/></g>
<g><path style="opacity:0.294" fill="#161616" d="M 226.5,119.5 C 207.285,160.262 187.285,200.596 166.5,240.5C 185.715,199.738 205.715,159.404 226.5,119.5 Z"/></g>
<g><path style="opacity:0.448" fill="#181818" d="M 397.5,156.5 C 399.262,159.503 400.428,162.837 401,166.5C 404.907,187.241 405.407,207.907 402.5,228.5C 404.916,204.198 403.249,180.198 397.5,156.5 Z"/></g>
<g><path style="opacity:1" fill="#848484" d="M 358.5,197.5 C 358.833,197.5 359.167,197.5 359.5,197.5C 359.5,201.5 359.5,205.5 359.5,209.5C 337.5,209.5 315.5,209.5 293.5,209.5C 314.994,208.503 336.66,208.169 358.5,208.5C 358.5,204.833 358.5,201.167 358.5,197.5 Z"/></g>
<g><path style="opacity:0.263" fill="#161616" d="M 87.5,193.5 C 93.9287,204.022 99.5954,215.022 104.5,226.5C 98.0713,215.978 92.4046,204.978 87.5,193.5 Z"/></g>
<g><path style="opacity:0.341" fill="#1f1f1f" d="M 401.5,234.5 C 401.755,239.568 400.755,244.234 398.5,248.5C 399.216,243.651 400.216,238.985 401.5,234.5 Z"/></g>
<g><path style="opacity:0.863" fill="#181818" d="M 166.5,240.5 C 166.34,242.153 165.674,243.486 164.5,244.5C 164.229,242.62 164.896,241.287 166.5,240.5 Z"/></g>
<g><path style="opacity:0.29" fill="#1b1b1b" d="M 12.5,194.5 C 11.9252,218.471 14.2585,242.138 19.5,265.5C 12.3051,242.281 9.97181,218.614 12.5,194.5 Z"/></g>
<g><path style="opacity:0.294" fill="#2a2a2a" d="M 397.5,252.5 C 397.196,255.522 396.696,258.522 396,261.5C 395.617,262.056 395.117,262.389 394.5,262.5C 394.899,258.884 395.899,255.55 397.5,252.5 Z"/></g>
<g><path style="opacity:0.348" fill="#171717" d="M 394.5,262.5 C 394.267,265.542 393.267,268.208 391.5,270.5C 391.733,267.458 392.733,264.792 394.5,262.5 Z"/></g>
<g><path style="opacity:0.249" fill="#161616" d="M 114.5,246.5 C 120.929,257.022 126.595,268.022 131.5,279.5C 125.071,268.978 119.405,257.978 114.5,246.5 Z"/></g>
<g><path style="opacity:0.206" fill="#252525" d="M 391.5,270.5 C 391.818,273.481 390.818,275.815 388.5,277.5C 388.707,274.759 389.707,272.426 391.5,270.5 Z"/></g>
<g><path style="opacity:0.345" fill="#1b1b1b" d="M 19.5,265.5 C 22.7353,273.659 25.7353,281.993 28.5,290.5C 24.1356,282.746 21.1356,274.413 19.5,265.5 Z"/></g>
<g><path style="opacity:0.418" fill="#181818" d="M 386.5,281.5 C 386.539,284.089 385.539,286.089 383.5,287.5C 383.992,285.181 384.992,283.181 386.5,281.5 Z"/></g>
<g><path style="opacity:0.471" fill="#1a1a1a" d="M 381.5,291.5 C 381.25,293.674 380.25,295.341 378.5,296.5C 378.75,294.326 379.75,292.659 381.5,291.5 Z"/></g>
<g><path style="opacity:0.392" fill="#181818" d="M 28.5,290.5 C 32.0078,296.182 35.0078,302.182 37.5,308.5C 33.4596,303.086 30.4596,297.086 28.5,290.5 Z"/></g>
<g><path style="opacity:0.997" fill="#808080" d="M 258.5,118.5 C 259.499,180.331 259.832,242.331 259.5,304.5C 249.167,304.5 238.833,304.5 228.5,304.5C 228.5,304.167 228.5,303.833 228.5,303.5C 238.5,303.5 248.5,303.5 258.5,303.5C 258.5,241.833 258.5,180.167 258.5,118.5 Z"/></g>
<g><path style="opacity:0.827" fill="#1a1a1a" d="M 378.5,296.5 C 377.617,299.704 375.95,302.371 373.5,304.5C 374.383,301.296 376.05,298.629 378.5,296.5 Z"/></g>
<g><path style="opacity:0.209" fill="#d8d8d8" d="M 155.5,304.5 C 156.738,304.81 156.738,305.31 155.5,306C 152.183,306.498 148.85,306.665 145.5,306.5C 148.337,304.598 151.671,303.931 155.5,304.5 Z"/></g>
<g><path style="opacity:0.984" fill="#282828" d="M 373.5,304.5 C 372.567,307.37 370.9,309.704 368.5,311.5C 369.433,308.63 371.1,306.296 373.5,304.5 Z"/></g>
<g><path style="opacity:0.282" fill="#101010" d="M 38.5,310.5 C 40.2503,311.659 41.2503,313.326 41.5,315.5C 39.7497,314.341 38.7497,312.674 38.5,310.5 Z"/></g>
<g><path style="opacity:0.412" fill="#121212" d="M 41.5,315.5 C 42.9063,315.973 43.573,316.973 43.5,318.5C 42.0937,318.027 41.427,317.027 41.5,315.5 Z"/></g>
<g><path style="opacity:0.212" fill="#171717" d="M 43.5,318.5 C 44.9063,318.973 45.573,319.973 45.5,321.5C 44.0937,321.027 43.427,320.027 43.5,318.5 Z"/></g>
<g><path style="opacity:0.212" fill="#171717" d="M 45.5,321.5 C 46.9063,321.973 47.573,322.973 47.5,324.5C 46.0937,324.027 45.427,323.027 45.5,321.5 Z"/></g>
<g><path style="opacity:0.455" fill="#121212" d="M 47.5,324.5 C 48.9063,324.973 49.573,325.973 49.5,327.5C 48.0937,327.027 47.427,326.027 47.5,324.5 Z"/></g>
<g><path style="opacity:0.337" fill="#141414" d="M 49.5,327.5 C 51.2624,328.262 52.2624,329.596 52.5,331.5C 50.7376,330.738 49.7376,329.404 49.5,327.5 Z"/></g>
<g><path style="opacity:1" fill="#2e2e2e" d="M 368.5,311.5 C 361.586,322.416 352.919,331.749 342.5,339.5C 351.562,330.441 360.229,321.108 368.5,311.5 Z"/></g>
<g><path style="opacity:0.337" fill="#1a1a1a" d="M 52.5,331.5 C 54.5869,332.585 55.9202,334.251 56.5,336.5C 54.4131,335.415 53.0798,333.749 52.5,331.5 Z"/></g>
<g><path style="opacity:0.361" fill="#1c1c1c" d="M 56.5,336.5 C 58.914,337.911 60.5806,339.911 61.5,342.5C 59.086,341.089 57.4194,339.089 56.5,336.5 Z"/></g>
<g><path style="opacity:1" fill="#2e2e2e" d="M 342.5,339.5 C 341.089,341.914 339.089,343.581 336.5,344.5C 337.911,342.086 339.911,340.419 342.5,339.5 Z"/></g>
<g><path style="opacity:0.427" fill="#151515" d="M 63.5,344.5 C 68.8333,349.167 73.8333,354.167 78.5,359.5C 72.5,355.5 67.5,350.5 63.5,344.5 Z"/></g>
<g><path style="opacity:1" fill="#323232" d="M 336.5,344.5 C 335.415,346.587 333.749,347.92 331.5,348.5C 332.585,346.413 334.251,345.08 336.5,344.5 Z"/></g>
<g><path style="opacity:1" fill="#212121" d="M 331.5,348.5 C 331.027,349.906 330.027,350.573 328.5,350.5C 328.973,349.094 329.973,348.427 331.5,348.5 Z"/></g>
<g><path style="opacity:0.945" fill="#1d1d1d" d="M 328.5,350.5 C 327.738,352.262 326.404,353.262 324.5,353.5C 325.262,351.738 326.596,350.738 328.5,350.5 Z"/></g>
<g><path style="opacity:1" fill="#2e2e2e" d="M 324.5,353.5 C 324.027,354.906 323.027,355.573 321.5,355.5C 321.973,354.094 322.973,353.427 324.5,353.5 Z"/></g>
<g><path style="opacity:0.349" fill="#151515" d="M 321.5,355.5 C 320.341,357.25 318.674,358.25 316.5,358.5C 317.659,356.75 319.326,355.75 321.5,355.5 Z"/></g>
<g><path style="opacity:0.337" fill="#111111" d="M 316.5,358.5 C 315.341,360.25 313.674,361.25 311.5,361.5C 312.659,359.75 314.326,358.75 316.5,358.5 Z"/></g>
<g><path style="opacity:0.918" fill="#252525" d="M 78.5,359.5 C 81.4274,360.757 83.7607,362.757 85.5,365.5C 82.5726,364.243 80.2393,362.243 78.5,359.5 Z"/></g>
<g><path style="opacity:0.365" fill="#181818" d="M 309.5,362.5 C 305.419,365.874 300.753,368.207 295.5,369.5C 299.849,366.659 304.516,364.326 309.5,362.5 Z"/></g>
<g><path style="opacity:0.416" fill="#1c1c1c" d="M 85.5,365.5 C 87.7488,366.08 89.4154,367.413 90.5,369.5C 88.2512,368.92 86.5846,367.587 85.5,365.5 Z"/></g>
<g><path style="opacity:0.961" fill="#1f1f1f" d="M 90.5,369.5 C 92.4044,369.738 93.7377,370.738 94.5,372.5C 92.5956,372.262 91.2623,371.262 90.5,369.5 Z"/></g>
<g><path style="opacity:0.314" fill="#181818" d="M 293.5,370.5 C 292.22,371.931 290.553,372.598 288.5,372.5C 289.78,371.069 291.447,370.402 293.5,370.5 Z"/></g>
<g><path style="opacity:0.894" fill="#191919" d="M 94.5,372.5 C 96.0269,372.427 97.0269,373.094 97.5,374.5C 95.9731,374.573 94.9731,373.906 94.5,372.5 Z"/></g>
<g><path style="opacity:0.361" fill="#121212" d="M 288.5,372.5 C 286.208,374.267 283.542,375.267 280.5,375.5C 282.792,373.733 285.458,372.733 288.5,372.5 Z"/></g>
<g><path style="opacity:0.949" fill="#1f1f1f" d="M 97.5,374.5 C 99.8525,375.34 101.853,376.674 103.5,378.5C 100.802,378.155 98.8021,376.822 97.5,374.5 Z"/></g>
<g><path style="opacity:0.431" fill="#212121" d="M 149.5,373.5 C 158.594,376.202 167.594,378.868 176.5,381.5C 166.943,380.423 157.943,377.756 149.5,373.5 Z"/></g>
<g><path style="opacity:0.294" fill="#252525" d="M 277.5,376.5 C 274.592,378.605 271.258,379.605 267.5,379.5C 270.505,377.723 273.838,376.723 277.5,376.5 Z"/></g>
<g><path style="opacity:0.533" fill="#1a1a1a" d="M 103.5,378.5 C 105.027,378.427 106.027,379.094 106.5,380.5C 104.973,380.573 103.973,379.906 103.5,378.5 Z"/></g>
<g><path style="opacity:0.353" fill="#0b0b0b" d="M 267.5,379.5 C 264.781,380.913 261.781,381.58 258.5,381.5C 261.219,380.087 264.219,379.42 267.5,379.5 Z"/></g>
<g><path style="opacity:0.396" fill="#111111" d="M 106.5,380.5 C 108.027,380.427 109.027,381.094 109.5,382.5C 107.973,382.573 106.973,381.906 106.5,380.5 Z"/></g>
<g><path style="opacity:0.378" fill="#242424" d="M 176.5,381.5 C 194.031,384.518 211.697,385.851 229.5,385.5C 219.342,386.659 209.008,386.825 198.5,386C 190.873,385.258 183.539,383.758 176.5,381.5 Z"/></g>
<g><path style="opacity:0.304" fill="#181818" d="M 111.5,383.5 C 114.331,384.079 116.664,385.412 118.5,387.5C 115.669,386.921 113.336,385.588 111.5,383.5 Z"/></g>
<g><path style="opacity:0.263" fill="#080808" d="M 247.5,383.5 C 241.75,385.15 235.75,385.816 229.5,385.5C 235.312,384.423 241.312,383.757 247.5,383.5 Z"/></g>
<g><path style="opacity:0.373" fill="#151515" d="M 126.5,391.5 C 129.241,391.707 131.574,392.707 133.5,394.5C 130.759,394.293 128.426,393.293 126.5,391.5 Z"/></g>
<g><path style="opacity:0.37" fill="#151515" d="M 135.5,395.5 C 138.542,395.733 141.208,396.733 143.5,398.5C 140.458,398.267 137.792,397.267 135.5,395.5 Z"/></g>
<g><path style="opacity:1" fill="#494949" d="M 149.5,400.5 C 153.286,400.32 156.619,401.32 159.5,403.5C 155.838,403.277 152.505,402.277 149.5,400.5 Z"/></g>
<g><path style="opacity:0.325" fill="#1c1c1c" d="M 159.5,403.5 C 162.228,403.171 164.562,403.837 166.5,405.5C 163.848,405.59 161.515,404.924 159.5,403.5 Z"/></g>
<g><path style="opacity:0.282" fill="#212121" d="M 177.5,407.5 C 182.75,407.302 187.75,407.969 192.5,409.5C 187.25,409.698 182.25,409.031 177.5,407.5 Z"/></g>
</svg>
